<svg xmlns="http://www.w3.org/2000/svg" viewBox="0 0 64 64">
    <path d="M0 0h64v64H0z" fill="#000000" />
    <path d="M33.288 7c-6.938 0-12.887 2.628-17.847 7.883-4.96 5.256-7.44 11.526-7.44 18.81s2.167 13.034 6.503 17.249c4.337 4.214 9.566 6.322 15.688 6.322 2.255 0 4.154-.19 5.698-.572 1.544-.365 2.88-.928 4.007-1.692v-4.812c-1.076.624-2.403 1.153-3.981 1.586-1.561.452-3.469.677-5.724.677-4.77 0-8.655-1.587-11.656-4.761-2.983-3.157-4.474-7.675-4.474-13.554 0-6.366 1.838-11.698 5.515-16 3.677-4.319 8.247-6.478 13.711-6.478 5.516 0 9.791 1.726 12.826 5.178 3.053 3.434 4.58 7.553 4.58 12.358 0 3.867-.625 6.937-1.874 9.21-1.232 2.254-2.827 3.373-4.787 3.356-1.336 0-2.368-.373-3.096-1.12-.456-.477-.688-1.21-.702-2.194l3.053-17.33h-5.472l-3.011 16.966c-.594.943-1.31 1.71-2.147 2.304-.838.576-1.746.864-2.723.864-1.135 0-1.973-.288-2.514-.864-.523-.576-.646-1.65-.366-3.22l2.827-16.05h-5.446l-2.985 16.888c-.47 2.688-.2 4.625.812 5.812 1.012 1.17 2.54 1.754 4.582 1.754 1.571 0 2.985-.314 4.242-.942 1.256-.646 2.295-1.501 3.115-2.566l-.471 2.985h9.652c3.66 0 6.677-.946 9.053-4.068C54.812 37.857 56 33.78 56 28.75c0-6.07-2.08-11.213-6.243-15.428C45.61 9.108 40.122 7 33.287 7z" fill="#ffffff" />
</svg>
