<svg xmlns="http://www.w3.org/2000/svg" xmlns:xlink="http://www.w3.org/1999/xlink"><symbol viewBox="0 0 24 24" id="icon_cart"><path d="M18 6h-2c0-2.21-1.79-4-4-4S8 3.79 8 6H6c-1.1 0-2 .9-2 2v12c0 1.1.9 2 2 2h12c1.1 0 2-.9 2-2V8c0-1.1-.9-2-2-2zm-6-2c1.1 0 2 .9 2 2h-4c0-1.1.9-2 2-2zm6 16H6V8h2v2c0 .55.45 1 1 1s1-.45 1-1V8h4v2c0 .55.45 1 1 1s1-.45 1-1V8h2v12z"/></symbol><symbol viewBox="0 0 24 24" id="icon_log_in"><path d="M11 7L9.6 8.4l2.6 2.6H2v2h10.2l-2.6 2.6L11 17l5-5-5-5zm9 12h-8v2h8c1.1 0 2-.9 2-2V5c0-1.1-.9-2-2-2h-8v2h8v14z"/></symbol><symbol viewBox="0 0 24 24" id="icon_logo"><path class="cicon_logo__path-1" d="M0 0v24h24z"/><path class="cicon_logo__path-2" d="M0 0h24v24z" fill="#7f7f7f"/></symbol><symbol viewBox="0 0 24 24" id="icon_placemark"><path d="M12 2C8.13 2 5 5.13 5 9c0 5.25 7 13 7 13s7-7.75 7-13c0-3.87-3.13-7-7-7zM7 9c0-2.76 2.24-5 5-5s5 2.24 5 5c0 2.88-2.88 7.19-5 9.88C9.92 16.21 7 11.85 7 9z"/><circle cx="12" cy="9" r="2.5"/></symbol></svg>